<svg width="90" height="90" viewBox="0 0 90 90" fill="none" xmlns="http://www.w3.org/2000/svg">
<path fill-rule="evenodd" clip-rule="evenodd" d="M45 90C69.8528 90 90 69.8528 90 45C90 20.1472 69.8528 0 45 0C20.1472 0 0 20.1472 0 45C0 69.8528 20.1472 90 45 90ZM41 23C41 26.866 37.866 30 34 30C30.134 30 27 26.866 27 23C27 19.134 30.134 16 34 16C37.866 16 41 19.134 41 23ZM60 79.0189C74.3594 79.0189 86 67.5979 86 53.5094C86 39.421 74.3594 28 60 28C45.6406 28 34 39.421 34 53.5094C34 67.5979 45.6406 79.0189 60 79.0189ZM16 54C22.6274 54 28 48.6274 28 42C28 35.3726 22.6274 30 16 30C9.37258 30 4 35.3726 4 42C4 48.6274 9.37258 54 16 54Z" fill="black"/>
</svg>
